<svg width="512" height="512" viewBox="0 0 512 512" fill="none" xmlns="http://www.w3.org/2000/svg">
<path d="M309.033 19.0353C310.535 14.7807 309.733 15.3121 312.709 18.6896C331.454 39.9629 296.931 67.4881 280.211 117.518C271.086 144.8 280.37 166.624 296.269 184.081C297.398 187.384 302.473 188.522 303.099 184.864C305.683 169.656 300.43 153.561 321.293 138.007C323.318 136.496 326.789 136.403 327.097 138.922C332.62 184.585 381.39 198.459 395.814 238.524C402.756 257.781 404.408 275.098 404.054 281.985C403.298 296.437 395.47 321.46 396.888 321.751C411.695 324.774 414.989 305.488 416.612 309.482C425.066 330.326 428.565 350.199 428.341 368.767C428.07 392.186 421.912 413.553 412.367 432.214C411.677 433.558 410.967 434.892 410.249 436.207C409.195 438.129 408.113 440.014 406.993 441.861C393.035 465.029 374.028 483.363 355.666 495.408C352.951 497.181 349.994 494.7 350.507 491.509C350.669 490.498 350.736 489.519 350.718 488.57C359.752 451.861 339.255 425.019 327.681 391.334C326.989 389.307 324.557 388.45 322.742 389.574C315.435 394.117 308.727 400.152 303.235 407.035C301.061 409.735 296.739 407.901 297.246 404.455C303.152 364.825 296.03 320.642 260.103 287.802C257.745 285.618 253.995 287.71 254.519 290.889C262.665 341.005 211.655 377.918 186.214 416.13C172.205 436.969 167.992 463.957 173.88 488.29C173.516 489.364 173.482 490.451 173.808 491.546C174.712 494.606 171.297 497.097 168.638 495.353C146.515 480.835 123.899 457.042 107.468 427.679C106.404 425.776 105.359 423.844 104.352 421.903C103.456 420.168 102.57 418.414 101.721 416.642C78.9078 369.402 72.6937 310.023 107.477 252.034C110.967 246.212 113.85 238.533 118.18 232.822C119.887 229.604 121.286 228.746 122.611 231.265C127.239 240.101 132.95 272.757 154.102 281.499C156.817 282.619 158.869 280.408 159.084 277.469C159.774 267.625 160.334 257.847 157.656 249.664C97.0272 64.9221 292.5 65.8553 309.033 19.0353Z" fill="#FF4506"/>
</svg>
