<svg width="382" height="70" viewBox="0 0 382 70" fill="none" xmlns="http://www.w3.org/2000/svg">
<path d="M371.047 54.8L380.547 61.4C377.047 67.5 371.247 69.9 362.247 69.9C347.247 69.9 340.047 60.2 340.047 47.3V40.5C340.047 25.4 347.647 18.1 360.647 18.1C374.747 18.1 381.247 26.3 381.247 41.5V47.2H352.747C352.847 54.1 355.047 59.1 362.147 59.1C367.447 59.1 369.147 57.5 371.047 54.8ZM360.747 28.9C355.647 28.9 353.247 32.4 352.747 38.1H368.447C368.147 31.6 365.547 28.9 360.747 28.9Z" fill="black"/>
<path d="M338.415 25.9L328.615 32.9C327.315 31 325.515 29.1 322.315 29.1C317.515 29.1 314.315 32.6 314.315 39.6V69H301.515V19H314.015V23.2C315.715 20.7 319.015 18.1 324.915 18.1C330.915 18.1 335.415 20.7 338.415 25.9Z" fill="black"/>
<path d="M248.401 19H254.801V16.3C254.801 3.4 259.801 0 271.901 0H275.601V11.2H273.201C268.501 11.2 267.501 13.3 267.501 18.3V19H292.701V69H279.901V29.8H267.501V69H254.801V29.8H248.401V19Z" fill="black"/>
<path d="M247.985 25.9L238.185 32.9C236.885 31 235.085 29.1 231.885 29.1C227.085 29.1 223.885 32.6 223.885 39.6V69H211.085V19H223.585V23.2C225.285 20.7 228.585 18.1 234.485 18.1C240.485 18.1 244.985 20.7 247.985 25.9Z" fill="black"/>
<path d="M191.652 54.8L201.152 61.4C197.652 67.5 191.852 69.9 182.852 69.9C167.852 69.9 160.652 60.2 160.652 47.3V40.5C160.652 25.4 168.252 18.1 181.252 18.1C195.352 18.1 201.852 26.3 201.852 41.5V47.2H173.352C173.452 54.1 175.652 59.1 182.752 59.1C188.052 59.1 189.752 57.5 191.652 54.8ZM181.352 28.9C176.252 28.9 173.852 32.4 173.352 38.1H189.052C188.752 31.6 186.152 28.9 181.352 28.9Z" fill="black"/>
<path d="M144.629 19H158.729L139.729 69H127.729L108.329 19H122.329L133.529 51.4L144.629 19Z" fill="black"/>
<path d="M31 54.8L40.5 61.4C37 67.3 31.3 69.9 22.3 69.9C8 69.9 0 60.9 0 47.3V40.5C0 25.9 8.1 18.1 23 18.1C30.7 18.1 37 20.9 40.5 26.4L30.9 33.1C29.2 30.7 26.7 28.9 22.7 28.9C15.5 28.9 12.7 33.3 12.7 41.3V46.5C12.7 53.7 14.6 59.1 22.7 59.1C26.5 59.1 29.2 57.8 31 54.8Z" fill="black"/>
</svg>
