<?xml version="1.0" encoding="UTF-8"?><svg id="Layer_1" xmlns="http://www.w3.org/2000/svg" viewBox="0 0 82.53 28.68"><defs><style>.cls-1{fill:none;stroke:#dddde0;stroke-miterlimit:10;stroke-width:.5px;}</style></defs><path d="M14.92.11h4.25l6.95,11.71L33.08.11h4.32l.94,1.59-2.16,3.63-1-1.6-9.05,15.26L14.92.11ZM56.18,18.99l-9.05-15.26-1,1.6-2.16-3.63.95-1.59h4.32l6.95,11.71L63.13.11h4.25l-11.2,18.88ZM82.52,18.88L71.32,0l-11.21,18.88h4.25l6.95-11.71,6.95,11.71h4.25ZM52.47,18.88L41.26,0l-11.2,18.88h4.25l6.95-11.71,6.95,11.71h4.25ZM22.41,18.88L11.2,0,0,18.88h4.25l6.95-11.71,6.95,11.71h4.25Z"/><line class="cls-1" x1="32.36" y1="22.77" x2="29.05" y2="28.69"/><path d="M.42,27.75v-3.95h1.4c.89,0,1.52.46,1.52,1.72v.52c0,1.25-.62,1.72-1.52,1.72H.42ZM2.54,26.03v-.52c0-.68-.18-1.04-.72-1.04h-.6v2.59h.6c.53,0,.72-.36.72-1.04Z"/><path d="M7.66,23.8v.68h-1.66v.89h1.49v.68h-1.49v1.03h1.66v.68h-2.46v-3.95h2.46Z"/><path d="M11.47,24.82c-.17-.27-.38-.4-.78-.4-.36,0-.56.17-.56.43,0,.31.25.45.78.58.82.21,1.2.52,1.2,1.21,0,.65-.43,1.15-1.36,1.15-.69,0-1.17-.19-1.52-.65l.61-.42c.21.26.45.39.86.39.46,0,.61-.2.61-.44,0-.27-.17-.43-.81-.6-.78-.21-1.17-.58-1.17-1.23s.41-1.11,1.35-1.11c.63,0,1.1.21,1.39.65l-.6.43Z"/><path d="M14.76,27.75h-.8v-3.95h.8v3.95Z"/><path d="M19.64,25.69v.36c0,1.21-.56,1.75-1.45,1.75s-1.51-.54-1.51-1.75v-.5c0-1.28.62-1.8,1.51-1.8.83,0,1.33.47,1.45,1.28h-.77c-.07-.36-.28-.6-.68-.6-.46,0-.71.31-.71,1.07v.56c0,.76.25,1.07.71,1.07s.64-.28.68-.76h-.66v-.68h1.44Z"/><path d="M24.47,23.8v3.95h-.67l-1.54-2.44v2.44h-.76v-3.95h.66l1.55,2.48v-2.48h.76Z"/><path d="M39.4,23.8v.68h-1.66v.89h1.49v.68h-1.49v1.03h1.66v.68h-2.46v-3.95h2.46Z"/><path d="M44.13,23.8v3.95h-.67l-1.54-2.44v2.44h-.76v-3.95h.66l1.55,2.48v-2.48h.76Z"/><path d="M48.96,25.69v.36c0,1.21-.56,1.75-1.45,1.75s-1.51-.54-1.51-1.75v-.5c0-1.28.62-1.8,1.51-1.8.83,0,1.33.47,1.45,1.28h-.77c-.07-.36-.28-.6-.68-.6-.46,0-.71.31-.71,1.07v.56c0,.76.25,1.07.71,1.07s.64-.28.68-.76h-.66v-.68h1.44Z"/><path d="M51.67,27.75h-.8v-3.95h.8v3.95Z"/><path d="M56.68,23.8v3.95h-.67l-1.54-2.44v2.44h-.76v-3.95h.66l1.55,2.48v-2.48h.76Z"/><path d="M61.13,23.8v.68h-1.66v.89h1.49v.68h-1.49v1.03h1.66v.68h-2.46v-3.95h2.46Z"/><path d="M65.34,23.8v.68h-1.66v.89h1.49v.68h-1.49v1.03h1.66v.68h-2.46v-3.95h2.46Z"/><path d="M69.25,27.75l-.71-1.55h-.64v1.55h-.8v-3.95h1.41c.91,0,1.48.41,1.48,1.21,0,.53-.25.88-.68,1.06l.82,1.68h-.88ZM68.44,25.52c.47,0,.75-.1.75-.52s-.27-.53-.75-.53h-.54v1.04h.54Z"/><path d="M72.69,27.75h-.8v-3.95h.8v3.95Z"/><path d="M77.7,23.8v3.95h-.67l-1.54-2.44v2.44h-.76v-3.95h.66l1.55,2.48v-2.48h.76Z"/><path d="M82.53,25.69v.36c0,1.21-.56,1.75-1.45,1.75s-1.51-.54-1.51-1.75v-.5c0-1.28.62-1.8,1.51-1.8.83,0,1.33.47,1.45,1.28h-.77c-.07-.36-.28-.6-.68-.6-.46,0-.71.31-.71,1.07v.56c0,.76.25,1.07.71,1.07s.64-.28.68-.76h-.66v-.68h1.44Z"/></svg>